<?xml version="1.0" encoding="utf-8"?>
<!-- Generator: Adobe Illustrator 27.9.0, SVG Export Plug-In . SVG Version: 6.00 Build 0)  -->
<svg version="1.1" id="레이어_1" xmlns="http://www.w3.org/2000/svg" xmlns:xlink="http://www.w3.org/1999/xlink" x="0px"
	 y="0px" viewBox="0 0 48 48" style="enable-background:new 0 0 48 48;" xml:space="preserve">
<style type="text/css">
	.st0{fill:#FFFFFF;}
</style>
<g>
	<rect x="0.5" y="0.5" width="47" height="47"/>
	<path d="M47,1v46H1V1H47 M48,0H0v48h48V0L48,0z"/>
</g>
<g>
	<path class="st0" d="M21.87,13.6v24.41h-3.1V26.24h-7.49v11.77h-3.1V13.6h3.1v9.97h7.49V13.6H21.87z"/>
	<path class="st0" d="M34.54,18.93l2.7,14.04l0.11-2.81l1.37-16.56h3.24l-2.48,24.41h-3.35l-2.92-14.04l-0.22-1.19l-0.14,1.19
		l-2.99,14.04h-3.24L24.1,13.6h3.28l1.26,16.56l0.11,2.81l2.74-14.04H34.54z"/>
</g>
</svg>
